<svg id="Group_2742" data-name="Group 2742" xmlns="http://www.w3.org/2000/svg" xmlns:xlink="http://www.w3.org/1999/xlink" width="22.542" height="24.218" viewBox="0 0 22.542 24.218">
  <defs>
    <clipPath id="clip-path">
      <rect id="Rectangle_985" data-name="Rectangle 985" width="22.542" height="24.218" fill="#ba8e2b"/>
    </clipPath>
  </defs>
  <g id="Group_2741" data-name="Group 2741" clip-path="url(#clip-path)">
    <path id="Path_1739" data-name="Path 1739" d="M16.754,4.335H1.089a1.089,1.089,0,1,1,0-2.177H16.754a1.089,1.089,0,0,1,0,2.177" transform="translate(0 0.192)" fill="#ba8e2b"/>
    <path id="Path_1740" data-name="Path 1740" d="M20.942,20.265H6.844a1.089,1.089,0,1,1,0-2.177h14.1a1.089,1.089,0,1,1,0,2.177" transform="translate(0.51 1.603)" fill="#ba8e2b"/>
    <path id="Path_1741" data-name="Path 1741" d="M17.828,6.877a3.438,3.438,0,1,1,3.438-3.439,3.443,3.443,0,0,1-3.438,3.439m0-4.7a1.261,1.261,0,1,0,1.261,1.261,1.263,1.263,0,0,0-1.261-1.261" transform="translate(1.275 0)" fill="#ba8e2b"/>
    <path id="Path_1742" data-name="Path 1742" d="M8.921,11.71H1.089a1.089,1.089,0,1,1,0-2.177H8.921a1.089,1.089,0,1,1,0,2.177" transform="translate(0 0.845)" fill="#ba8e2b"/>
    <path id="Path_1743" data-name="Path 1743" d="M20.432,11.71H12.6a1.089,1.089,0,1,1,0-2.177h7.833a1.089,1.089,0,1,1,0,2.177" transform="translate(1.02 0.845)" fill="#ba8e2b"/>
    <path id="Path_1744" data-name="Path 1744" d="M10.634,14.251a3.438,3.438,0,1,1,3.438-3.438,3.442,3.442,0,0,1-3.438,3.438m0-4.7a1.261,1.261,0,1,0,1.261,1.262,1.264,1.264,0,0,0-1.261-1.262" transform="translate(0.638 0.654)" fill="#ba8e2b"/>
    <path id="Path_1745" data-name="Path 1745" d="M4.878,22.807a3.438,3.438,0,1,1,3.438-3.439,3.443,3.443,0,0,1-3.438,3.439m0-4.7a1.261,1.261,0,1,0,1.261,1.261,1.263,1.263,0,0,0-1.261-1.261" transform="translate(0.128 1.412)" fill="#ba8e2b"/>
  </g>
</svg>
