<svg xmlns="http://www.w3.org/2000/svg" width="22.2" height="24.5" viewBox="0 0 22.2 24.5">
  <g id="shield-user-svgrepo-com" transform="translate(-2.25 -1.25)">
    <ellipse id="Ellipse_18" data-name="Ellipse 18" cx="2.5" cy="2" rx="2.5" ry="2" transform="translate(11 8)" fill="none" stroke="#ba8e2b" stroke-width="1.5"/>
    <path id="Path_2410" data-name="Path 2410" d="M17.2,15.3c0,1.27,0,2.3-4.6,2.3S8,16.57,8,15.3,10.059,13,12.6,13,17.2,14.03,17.2,15.3Z" transform="translate(0.75 1.65)" fill="none" stroke="#ba8e2b" stroke-width="1.5"/>
    <path id="Path_2411" data-name="Path 2411" d="M3,11.679C3,8,3,6.163,3.434,5.545S5.6,4.334,9.055,3.151l.659-.225A11.833,11.833,0,0,1,13.35,2a11.833,11.833,0,0,1,3.637.925l.659.225c3.458,1.184,5.186,1.775,5.621,2.394S23.7,8,23.7,11.679V13.49a10.689,10.689,0,0,1-2.3,6.8M3.222,15.8c.986,4.943,5.041,7.49,7.712,8.656A4.824,4.824,0,0,0,13.35,25a4.823,4.823,0,0,0,2.417-.544,17.172,17.172,0,0,0,2.183-1.144" transform="translate(0)" fill="none" stroke="#ba8e2b" stroke-linecap="round" stroke-width="1.5"/>
  </g>
</svg>
