<svg xmlns="http://www.w3.org/2000/svg" width="28.219" height="28.407" viewBox="0 0 28.219 28.407">
  <g id="schedule-svgrepo-com" transform="translate(0)">
    <path id="Path_1344" data-name="Path 1344" d="M198.607,251.491h-23.8a2.215,2.215,0,0,1-2.212-2.212V227.812a2.215,2.215,0,0,1,2.212-2.212h23.8a2.215,2.215,0,0,1,2.212,2.212V249.28A2.215,2.215,0,0,1,198.607,251.491Zm-23.8-23.68V249.28h23.8V227.812Z" transform="translate(-172.6 -223.084)" fill="#edd089"/>
    <path id="Path_1345" data-name="Path 1345" d="M248.621,429.1h0Z" transform="translate(-222.088 -417.878)" fill="#edd089"/>
    <path id="Path_1346" data-name="Path 1346" d="M198.4,399.5h27.115v2.216H198.4Zm12.715,10.238,4.321-4.321a1.291,1.291,0,0,1,1.827,0l0,0a1.291,1.291,0,0,1,0,1.827l-5.164,5.159a1.485,1.485,0,0,1-1.977,0l-3.251-3.251a1.291,1.291,0,0,1,0-1.827l0,0a1.291,1.291,0,0,1,1.827,0Z" transform="translate(-197.296 -389.545)" fill="#edd089"/>
    <path id="Path_1347" data-name="Path 1347" d="M303,166.8a1.108,1.108,0,0,1,1.108,1.108v1.66H301.9v-1.66A1.1,1.1,0,0,1,303,166.8Zm14.392,0a1.108,1.108,0,0,1,1.108,1.108v1.66h-2.212v-1.66A1.1,1.1,0,0,1,317.4,166.8Z" transform="translate(-296.368 -166.8)" fill="#edd089"/>
  </g>
</svg>
