<svg xmlns="http://www.w3.org/2000/svg" width="26.799" height="26.799" viewBox="0 0 26.799 26.799">
  <g id="chat-line-svgrepo-com" transform="translate(0)">
    <path id="Path_1331" data-name="Path 1331" d="M8,9h9.972" transform="translate(0.414 0.66)" fill="none" stroke="#edd089" stroke-linecap="round" stroke-width="1.5"/>
    <path id="Path_1332" data-name="Path 1332" d="M8,12.5h6.856" transform="translate(0.414 1.523)" fill="none" stroke="#edd089" stroke-linecap="round" stroke-width="1.5"/>
    <path id="Path_1333" data-name="Path 1333" d="M16,26.351l.8.476Zm.676-1.142-.8-.476Zm-4.06,0-.8.476h0Zm.676,1.142.8-.476ZM1.25,12.78a.935.935,0,0,0,1.87,0Zm2.273,6.39a.935.935,0,0,0-1.727.715ZM9.4,23.364l-.016.935ZM6.032,22.9l-.358.864h0ZM26.64,19.527l.864.358h0ZM19.9,23.364l-.016-.935Zm3.369-.464.358.864h0Zm.871-19.8-.488.8ZM26.2,5.161l.8-.488h0ZM5.161,3.1l-.488-.8h0ZM3.1,5.161l-.8-.488h0Zm8.309,18.475.47-.808h0Zm5.4,3.191.676-1.142-1.609-.952L15.2,25.875Zm-4.994-1.142.676,1.142,1.609-.952-.676-1.142Zm3.385.189a.649.649,0,0,1-1.1,0l-1.609.952a2.518,2.518,0,0,0,4.318,0ZM12.78,3.12h3.739V1.25H12.78Zm13.4,9.66v1.246h1.87V12.78ZM9.417,22.429a8.393,8.393,0,0,1-3.028-.393l-.715,1.727a10.07,10.07,0,0,0,3.711.535ZM1.8,19.885a7.167,7.167,0,0,0,3.879,3.879l.716-1.727A5.3,5.3,0,0,1,3.523,19.17Zm24.384-5.859c0,1.465,0,2.516-.057,3.346a5.617,5.617,0,0,1-.346,1.8l1.727.715a7.423,7.423,0,0,0,.484-2.385c.062-.908.061-2.034.061-3.474ZM19.914,24.3a10.07,10.07,0,0,0,3.711-.535l-.715-1.727a8.392,8.392,0,0,1-3.028.393Zm5.862-5.129a5.3,5.3,0,0,1-2.867,2.867l.715,1.727A7.167,7.167,0,0,0,27.5,19.885ZM16.519,3.12c2.058,0,3.536,0,4.689.111a5.506,5.506,0,0,1,2.441.67l.977-1.594a7.322,7.322,0,0,0-3.241-.937c-1.262-.12-2.844-.119-4.866-.119Zm11.53,9.66c0-2.022,0-3.6-.119-4.866a7.322,7.322,0,0,0-.937-3.241L25.4,5.649a5.506,5.506,0,0,1,.67,2.441c.11,1.153.111,2.631.111,4.689ZM23.65,3.9A5.3,5.3,0,0,1,25.4,5.649l1.594-.977a7.167,7.167,0,0,0-2.366-2.366ZM12.78,1.25c-2.022,0-3.6,0-4.866.119a7.322,7.322,0,0,0-3.241.937L5.649,3.9a5.507,5.507,0,0,1,2.441-.67c1.153-.11,2.631-.111,4.689-.111ZM3.12,12.78c0-2.058,0-3.536.111-4.689A5.507,5.507,0,0,1,3.9,5.649L2.306,4.672a7.322,7.322,0,0,0-.937,3.241c-.12,1.262-.119,2.844-.119,4.866ZM4.672,2.306A7.167,7.167,0,0,0,2.306,4.672L3.9,5.649A5.3,5.3,0,0,1,5.649,3.9Zm8.751,22.427c-.253-.428-.475-.8-.691-1.1a2.778,2.778,0,0,0-.85-.8l-.94,1.616a.952.952,0,0,1,.279.289c.151.208.322.494.593.952ZM9.385,24.3c.547.009.894.016,1.158.046a.981.981,0,0,1,.4.1l.94-1.616a2.8,2.8,0,0,0-1.133-.342c-.371-.041-.819-.048-1.332-.057Zm8.1,1.387c.271-.458.442-.745.593-.952a.952.952,0,0,1,.279-.289l-.94-1.616a2.777,2.777,0,0,0-.85.8c-.216.3-.438.674-.691,1.1Zm2.4-3.256c-.513.009-.961.016-1.332.057a2.8,2.8,0,0,0-1.133.342l.94,1.616a.982.982,0,0,1,.4-.1c.264-.029.611-.036,1.158-.046Z" transform="translate(-1.25 -1.25)" fill="#edd089"/>
  </g>
</svg>
