<svg id="notification-alert-svgrepo-com" xmlns="http://www.w3.org/2000/svg" width="31" height="31" viewBox="0 0 31 31">
  <rect id="view-box" width="31" height="31" fill="none"/>
  <path id="Shape" d="M7.65,21.675v-.637H2.869A2.873,2.873,0,0,1,0,18.169v-.487a3.241,3.241,0,0,1,1.8-2.918,1.59,1.59,0,0,0,.873-1.284l.569-6.26A7.939,7.939,0,0,1,13.538.365a6.983,6.983,0,0,0-.81,1.752,6.112,6.112,0,0,0-1.572-.2,5.992,5.992,0,0,0-6,5.482L4.59,13.653a3.492,3.492,0,0,1-1.927,2.82,1.345,1.345,0,0,0-.751,1.21v.487a.958.958,0,0,0,.956.955H19.444a.958.958,0,0,0,.956-.956v-.487a1.343,1.343,0,0,0-.747-1.209,3.492,3.492,0,0,1-1.93-2.82l-.255-2.78a6.978,6.978,0,0,0,1.946.282l.212,2.323A1.607,1.607,0,0,0,20.5,14.76a3.247,3.247,0,0,1,1.808,2.92v.487a2.871,2.871,0,0,1-2.869,2.869H14.663v.64a3.506,3.506,0,1,1-7.012,0Zm1.912,0a1.594,1.594,0,1,0,3.187,0v-.637H9.563ZM19.185,8.6a4.445,4.445,0,0,1-1.972-.592L17.156,7.4a5.992,5.992,0,0,0-2.1-4.061,4.463,4.463,0,0,1,.778-1.807,7.932,7.932,0,0,1,3.228,5.692L19.189,8.6h0Z" transform="translate(4.144 2.868)" fill="#5f5f5f"/>
  <path id="Shape-2" data-name="Shape" d="M4.462,8.925A4.462,4.462,0,1,1,8.925,4.462,4.462,4.462,0,0,1,4.462,8.925Z" transform="translate(19.125 2.55)" fill="#edd089"/>
</svg>
