<svg xmlns="http://www.w3.org/2000/svg" width="15.746" height="15.756" viewBox="0 0 15.746 15.756">
  <g id="login-2-svgrepo-com" transform="translate(0.75 0.75)">
    <path id="Path_1360" data-name="Path 1360" d="M2,11.136h9.973m0,0L9.48,9m2.493,2.137L9.48,13.273" transform="translate(-2.001 -4.013)" fill="none" stroke="#edd089" stroke-linecap="round" stroke-linejoin="round" stroke-width="1.5"/>
    <path id="Path_1361" data-name="Path 1361" d="M9,5.562c.009-1.549.077-2.388.625-2.936C10.253,2,11.26,2,13.275,2h.712c2.015,0,3.022,0,3.648.626s.626,1.633.626,3.648v5.7c0,2.015,0,3.022-.626,3.648-.547.547-1.386.616-2.936.625M9,12.685c.009,1.549.077,2.388.625,2.936a3.081,3.081,0,0,0,2.223.614" transform="translate(-4.015 -2)" fill="none" stroke="#edd089" stroke-linecap="round" stroke-width="1.5"/>
  </g>
</svg>
