<svg xmlns="http://www.w3.org/2000/svg" width="30" height="30" viewBox="0 0 34.07 34.009">
  <g id="food-dinner-svgrepo-com_1_" data-name="food-dinner-svgrepo-com (1)" transform="translate(0.501 0.565)">
    <path id="Path_1736" data-name="Path 1736" d="M26.2.2a.615.615,0,1,1,.9.834L22.062,6.487l-.008.011a6.225,6.225,0,0,0-1.227,2.064,1.874,1.874,0,0,0,.1,1.5.621.621,0,0,1-.086.719h0l-2.392,2.589c-.234-.256-.42-.463-.544-.6a2.375,2.375,0,0,0-.188-.218l-.005.005c-.032-.035-.067-.067-.1-.1l2.045-2.215A3.11,3.11,0,0,1,19.643,8.2a7.428,7.428,0,0,1,1.464-2.495.546.546,0,0,1,.048-.062L26.191.2,26.2.2ZM15.375,14.806a.616.616,0,1,1,.918-.821c2.532,2.837,10.361,11.23,12.53,14.368,2.861,4.05-1.569,5.326-3.038,3.851-3.671-3.55-11.465-12.6-14.891-16.438a5.288,5.288,0,0,1-3.633.258,8.964,8.964,0,0,1-3.848-2.559L3.4,13.449a15.049,15.049,0,0,1-2.3-3.063A8.59,8.59,0,0,1,.056,7.3,7.024,7.024,0,0,1,.323,4.272,5.694,5.694,0,0,1,2.093,1.635,5.605,5.605,0,0,1,5.019.392,6.928,6.928,0,0,1,8,.717a11.681,11.681,0,0,1,4.527,3.143,12.209,12.209,0,0,1,2.438,3.733,6.126,6.126,0,0,1,.275,4.171,5.2,5.2,0,0,1-1.453,2.22.615.615,0,0,1-.837-.9,4.012,4.012,0,0,0,1.12-1.7,4.932,4.932,0,0,0-.25-3.332A10.955,10.955,0,0,0,11.623,4.7,10.471,10.471,0,0,0,7.61,1.888a5.705,5.705,0,0,0-2.446-.269,4.368,4.368,0,0,0-2.29.969A4.511,4.511,0,0,0,1.485,4.663a5.791,5.791,0,0,0-.213,2.492,7.4,7.4,0,0,0,.893,2.64,14.106,14.106,0,0,0,2.126,2.812l.005.008a7.8,7.8,0,0,0,3.3,2.231,4.225,4.225,0,0,0,3.143-.363.614.614,0,0,1,.764.126c3.342,3.743,11.473,13.165,15.074,16.656,1.564.638,2.43-.148,1.682-1.534-1.165-2.164-11.177-13-12.891-14.925Zm-3.246,5.412L4.281,28.709c-.016.016-.03.032-.048.048-1.146,1.238.883,3.041,2.142,1.835L14,22.344l.818.928L7.252,31.456h0a.507.507,0,0,1-.054.054,3.258,3.258,0,0,1-1.367.729,2.093,2.093,0,0,1-1.386-.151.653.653,0,0,1-.207-.124l-1.085-1h0c-.016-.016-.032-.03-.048-.048a2.024,2.024,0,0,1-.565-1.547,2.4,2.4,0,0,1,.845-1.5l7.923-8.574.821.931Zm8.224-4.753.466-.5a.615.615,0,1,1,.9.834l-.538.581-.832-.912ZM28.109,2a.615.615,0,1,1,.9.834L24.6,7.618a.615.615,0,1,1-.9-.834L28.109,2ZM30.02,3.769a.615.615,0,0,1,.9.834l-4.414,4.78a.615.615,0,0,1-.9-.834l4.414-4.78ZM32,5.607a.615.615,0,0,1,.9.834L27.867,11.9l-.057.054a6.543,6.543,0,0,1-3.289,1.922,3.639,3.639,0,0,1-3.133-.961.614.614,0,1,1,.807-.926,2.459,2.459,0,0,0,2.11.67,5.383,5.383,0,0,0,2.648-1.6l.005-.005L32,5.6l.005,0Z" transform="translate(0)" fill="#edd089" stroke="#edd089" stroke-width="1"/>
  </g>
</svg>
