<svg xmlns="http://www.w3.org/2000/svg" xmlns:xlink="http://www.w3.org/1999/xlink" width="24" height="24" viewBox="0 0 24 24">
  <defs>
    <clipPath id="clip-path">
      <rect id="call_1" data-name="call 1" width="24" height="24" fill="none" style="mix-blend-mode: normal;isolation: isolate"/>
    </clipPath>
  </defs>
  <g id="call_1-2" data-name="call 1" clip-path="url(#clip-path)" style="mix-blend-mode: normal;isolation: isolate">
    <rect id="call_1-3" data-name="call 1" width="24" height="24" fill="none" style="mix-blend-mode: normal;isolation: isolate"/>
    <g id="Group" transform="translate(0 0.002)" style="mix-blend-mode: normal;isolation: isolate">
      <path id="Vector" d="M8.774,3.268,6.5.994A3.344,3.344,0,0,0,3.6.04,3.382,3.382,0,0,0,1.094,1.826,9.359,9.359,0,0,0,.3,8.573c1.454,5.759,9.37,13.68,15.128,15.124a9.742,9.742,0,0,0,2.378.3,9.321,9.321,0,0,0,4.37-1.091,3.39,3.39,0,0,0,.832-5.4l-2.274-2.275a3.4,3.4,0,0,0-3.755-.71A5.29,5.29,0,0,0,15.374,15.6c-.556.56-2.608-.251-4.662-2.3S7.849,9.187,8.4,8.629A5.3,5.3,0,0,0,9.485,7.022,3.394,3.394,0,0,0,8.774,3.268ZM16.911,17.14a3.162,3.162,0,0,1,.952-.627,1.2,1.2,0,0,1,1.324.261l2.274,2.274a1.187,1.187,0,0,1,.338,1.026,1.214,1.214,0,0,1-.645.9,7.11,7.11,0,0,1-5.2.607C11.008,20.335,3.669,13,2.421,8.041a7.122,7.122,0,0,1,.608-5.2,1.216,1.216,0,0,1,.9-.64,1.136,1.136,0,0,1,.182-.014,1.187,1.187,0,0,1,.844.352L7.231,4.81a1.2,1.2,0,0,1,.261,1.323,3.164,3.164,0,0,1-.627.959c-1.881,1.875-.2,5.236,2.3,7.744S15.031,19.021,16.911,17.14Z" fill="#04764e" style="mix-blend-mode: normal;isolation: isolate"/>
    </g>
  </g>
</svg>
