<svg id="schedule-svgrepo-com" xmlns="http://www.w3.org/2000/svg" width="21.506" height="21.65" viewBox="0 0 21.506 21.65">
  <path id="Path_1344" data-name="Path 1344" d="M192.421,245.333H174.286a1.688,1.688,0,0,1-1.686-1.686V227.286a1.688,1.688,0,0,1,1.686-1.686h18.135a1.688,1.688,0,0,1,1.686,1.686v16.361A1.688,1.688,0,0,1,192.421,245.333Zm-18.135-18.047v16.361h18.135V227.286Z" transform="translate(-172.6 -223.683)" fill="#fff"/>
  <path id="Path_1345" data-name="Path 1345" d="M242.836,429.1h0Z" transform="translate(-222.614 -420.548)" fill="#fff"/>
  <path id="Path_1346" data-name="Path 1346" d="M198.4,399.5h20.665v1.689H198.4Zm9.69,7.8,3.293-3.293a.984.984,0,0,1,1.392,0l0,0a.984.984,0,0,1,0,1.392l-3.935,3.932a1.132,1.132,0,0,1-1.506,0l-2.478-2.478a.984.984,0,0,1,0-1.392l0,0a.984.984,0,0,1,1.392,0Z" transform="translate(-197.559 -391.913)" fill="#fff"/>
  <path id="Path_1347" data-name="Path 1347" d="M302.741,166.8a.845.845,0,0,1,.844.844v1.265H301.9v-1.265A.842.842,0,0,1,302.741,166.8Zm10.968,0a.845.845,0,0,1,.844.844v1.265h-1.686v-1.265A.838.838,0,0,1,313.71,166.8Z" transform="translate(-297.684 -166.8)" fill="#fff"/>
</svg>
