<svg xmlns="http://www.w3.org/2000/svg" width="41.224" height="25.02" viewBox="0 0 41.224 25.02">
  <g id="Group_2988" data-name="Group 2988" transform="translate(1060.36 4992.51)">
    <g id="Group_2579" data-name="Group 2579" transform="translate(-1051.228 -4989.325)">
      <g id="Group_2578" data-name="Group 2578" transform="translate(0 0)">
        <path id="Path_1341" data-name="Path 1341" d="M173.419,139.391l-7.276-2.056-4.2-6.285-4.2,6.285-7.276,2.056,4.678,5.938-.293,7.555,7.094-2.614,7.094,2.614-.293-7.555Zm-11.479,8.251-4.486,1.653.186-4.777-2.958-3.756,4.6-1.3,2.658-3.975,2.658,3.975,4.6,1.3-2.958,3.756.186,4.777Z" transform="translate(-150.46 -131.05)" fill="#ba8e2b"/>
      </g>
    </g>
    <g id="Group_2581" data-name="Group 2581" transform="translate(-1034.559 -4992.51)">
      <g id="Group_2580" data-name="Group 2580" transform="translate(0 0)">
        <path id="Path_1342" data-name="Path 1342" d="M304.263,112.95l-7.277-2.055-4.2-6.285-3.944,5.9,2.05,1.371,1.893-2.831,2.657,3.975,4.6,1.3-2.958,3.757.186,4.777L294.3,121.76l-.853,2.315,6.432,2.369-.293-7.555Z" transform="translate(-288.84 -104.61)" fill="#ba8e2b"/>
      </g>
    </g>
    <g id="Group_2583" data-name="Group 2583" transform="translate(-1060.36 -4992.51)">
      <g id="Group_2582" data-name="Group 2582" transform="translate(0 0)">
        <path id="Path_1343" data-name="Path 1343" d="M86.119,104.61l-4.2,6.285L74.64,112.95l4.678,5.939-.293,7.555,6.432-2.369L84.6,121.76l-2.971,1.095.186-4.777-2.958-3.757,4.6-1.3,2.657-3.975,1.894,2.831,2.05-1.371Z" transform="translate(-74.64 -104.61)" fill="#ba8e2b"/>
      </g>
    </g>
  </g>
</svg>
