<svg xmlns="http://www.w3.org/2000/svg" xmlns:xlink="http://www.w3.org/1999/xlink" width="24" height="24" viewBox="0 0 24 24">
  <defs>
    <clipPath id="clip-path">
      <rect id="email_2_1" data-name="email (2) 1" width="24" height="24" fill="none" style="mix-blend-mode: normal;isolation: isolate"/>
    </clipPath>
  </defs>
  <g id="email_2_1-2" data-name="email (2) 1" clip-path="url(#clip-path)" style="mix-blend-mode: normal;isolation: isolate">
    <rect id="email_2_1-3" data-name="email (2) 1" width="24" height="24" fill="none" style="mix-blend-mode: normal;isolation: isolate"/>
    <path id="Vector" d="M1,0A1,1,0,0,0,0,1V17a1,1,0,0,0,1,1H21a1,1,0,0,0,1-1V1a1,1,0,0,0-1-1ZM2,16V6.477l8.628,3.452a1.01,1.01,0,0,0,.744,0L20,6.477V16Zm9-8.077-9-3.6V2H20V4.323Z" transform="translate(1 3)" fill="#04764e" style="mix-blend-mode: normal;isolation: isolate"/>
  </g>
</svg>
