<svg xmlns="http://www.w3.org/2000/svg" xmlns:xlink="http://www.w3.org/1999/xlink" width="29" height="26" viewBox="0 0 29 26">
  <defs>
    <clipPath id="clip-path">
      <rect id="Rectangle_902" data-name="Rectangle 902" width="29" height="26" transform="translate(0 -0.331)" fill="#ba8e2b"/>
    </clipPath>
  </defs>
  <g id="Group_2476" data-name="Group 2476" transform="translate(-0.354 0.808)">
    <g id="Group_2475" data-name="Group 2475" transform="translate(0.354 -0.477)" clip-path="url(#clip-path)">
      <path id="Path_1284" data-name="Path 1284" d="M512.78,5.559A2.78,2.78,0,1,0,510,2.78a2.782,2.782,0,0,0,2.78,2.78m0-4.169a1.39,1.39,0,1,1-1.39,1.39,1.391,1.391,0,0,1,1.39-1.39" transform="translate(-498.691 0.011)" fill="#ba8e2b"/>
      <path id="Path_1285" data-name="Path 1285" d="M423.475,271.39h2.78a2.087,2.087,0,0,1,2.085,2.085h1.39A3.478,3.478,0,0,0,426.254,270h-2.78A3.256,3.256,0,0,0,420,273.475h1.39a1.89,1.89,0,0,1,2.085-2.085" transform="translate(-410.776 -263.735)" fill="#ba8e2b"/>
      <path id="Path_1286" data-name="Path 1286" d="M63.127,396.254A3.127,3.127,0,1,0,60,393.127a3.131,3.131,0,0,0,3.127,3.127m0-4.864a1.737,1.737,0,1,1-1.737,1.737,1.739,1.739,0,0,1,1.737-1.737" transform="translate(-59.115 -380.955)" fill="#ba8e2b"/>
      <path id="Path_1287" data-name="Path 1287" d="M933.127,396.254A3.127,3.127,0,1,0,930,393.127a3.13,3.13,0,0,0,3.127,3.127m0-4.864a1.737,1.737,0,1,1-1.737,1.737,1.739,1.739,0,0,1,1.737-1.737" transform="translate(-908.963 -380.955)" fill="#ba8e2b"/>
      <path id="Path_1288" data-name="Path 1288" d="M26.407,484.864H23.28l-1.027,1.369L19.941,480H9.245l-2.312,6.233-1.027-1.369H2.78A2.783,2.783,0,0,0,0,487.644v6.949H1.39v-6.949a1.392,1.392,0,0,1,1.39-1.39H5.212l2.085,2.78h3.739c-.2.8-.716,1.39-1.307,1.39H5.236l-1.184-1.775-1.156.771,1.273,1.91v3.264H25.017v-3.264l1.273-1.91-1.156-.771-1.184,1.775H19.457c-.592,0-1.111-.589-1.307-1.39H21.89l2.085-2.78h2.432a1.391,1.391,0,0,1,1.39,1.39v6.949h1.39v-6.949a2.782,2.782,0,0,0-2.78-2.78m-9.729,2.78v.695c0,1.916,1.247,3.475,2.78,3.475h4.169v1.39H5.559v-1.39H9.729c1.533,0,2.78-1.559,2.78-3.475v-.695H7.991l-.066-.088,2.287-6.166h8.762l2.287,6.166-.067.089Z" transform="translate(-0.505 -468.87)" fill="#ba8e2b"/>
    </g>
  </g>
</svg>
