<svg xmlns="http://www.w3.org/2000/svg" width="18" height="20" viewBox="0 0 18 20">
  <path id="lock-alt-svgrepo-com" d="M12,14.5v2M7,10.029C7.471,10,8.053,10,8.8,10h6.4c.747,0,1.329,0,1.8.029m-10,0a3.377,3.377,0,0,0-1.362.3,3,3,0,0,0-1.311,1.311A7.453,7.453,0,0,0,4,14.8v1.4a7.453,7.453,0,0,0,.327,3.162,3,3,0,0,0,1.311,1.311A7.453,7.453,0,0,0,8.8,21h6.4a7.453,7.453,0,0,0,3.162-.327,3,3,0,0,0,1.311-1.311A7.453,7.453,0,0,0,20,16.2V14.8a7.453,7.453,0,0,0-.327-3.162,3,3,0,0,0-1.311-1.311,3.377,3.377,0,0,0-1.362-.3m-10,0V8A5,5,0,0,1,17,8v2.029" transform="translate(-3 -2)" fill="none" stroke="#203a21" stroke-linecap="round" stroke-linejoin="round" stroke-width="2"/>
</svg>
