<svg id="cafe-svgrepo-com" xmlns="http://www.w3.org/2000/svg" width="30" height="30" viewBox="0 0 42 42">
  <rect id="Rectangle_952" data-name="Rectangle 952" width="38" height="3" transform="translate(2 37)" fill="#edd089"/>
  <path id="Path_1606" data-name="Path 1606" d="M30.417,11H8.64A2.642,2.642,0,0,0,6,13.64V24.2a6.607,6.607,0,0,0,6.6,6.6H23.158a6.607,6.607,0,0,0,6.6-6.6v-1.32h.66a5.939,5.939,0,0,0,0-11.879Zm-3.3,13.2a3.964,3.964,0,0,1-3.96,3.96H12.6A3.964,3.964,0,0,1,8.64,24.2V13.64H27.118Zm3.3-3.96h-.66v-6.6h.66a3.3,3.3,0,0,1,0,6.6Z" transform="translate(1.919 3.518)" fill="#edd089"/>
  <path id="Path_1607" data-name="Path 1607" d="M21.559,11.559h-2.64v-.193A2.624,2.624,0,0,0,17.46,9.005L13.918,7.234A5.251,5.251,0,0,1,11,2.513V1h2.64V2.513A2.625,2.625,0,0,0,15.1,4.873l3.542,1.771a5.252,5.252,0,0,1,2.918,4.722Z" transform="translate(3.518 0.32)" fill="#edd089"/>
  <rect id="_Transparent_Rectangle_" data-name="&lt;Transparent Rectangle&gt;" width="42" height="42" fill="none"/>
</svg>
