<svg id="chat-line-svgrepo-com" xmlns="http://www.w3.org/2000/svg" width="22.709" height="22.709" viewBox="0 0 22.709 22.709">
  <path id="Path_1331" data-name="Path 1331" d="M8,9h8.45" transform="translate(-0.87 -0.814)" fill="none" stroke="#edd089" stroke-linecap="round" stroke-width="1.5"/>
  <path id="Path_1332" data-name="Path 1332" d="M8,12.5h5.809" transform="translate(-0.87 -0.617)" fill="none" stroke="#edd089" stroke-linecap="round" stroke-width="1.5"/>
  <path id="Path_1333" data-name="Path 1333" d="M13.752,22.52l.682.4Zm.573-.967-.682-.4Zm-3.441,0-.682.4h0Zm.573.967.682-.4ZM1.25,11.02a.792.792,0,0,0,1.584,0Zm1.926,5.415a.792.792,0,0,0-1.464.606Zm4.981,3.554-.014.792ZM5.3,19.6l-.3.732H5Zm17.463-2.858.732.3h0Zm-5.713,3.251-.014-.792Zm2.855-.393.3.732h0ZM20.645,2.82l-.414.675Zm1.744,1.744.675-.414h0ZM4.564,2.82,4.15,2.145h0ZM2.82,4.564,2.145,4.15h0ZM9.861,20.22l.4-.685h0Zm4.573,2.7.573-.967-1.363-.807-.573.967ZM10.2,21.956l.573.967,1.363-.807-.573-.967Zm2.868.16a.55.55,0,0,1-.932,0l-1.363.807a2.134,2.134,0,0,0,3.659,0ZM11.02,2.834h3.169V1.25H11.02ZM22.375,11.02v1.056h1.584V11.02ZM8.171,19.2a7.112,7.112,0,0,1-2.566-.333L5,20.328a8.533,8.533,0,0,0,3.145.453ZM1.712,17.041A6.073,6.073,0,0,0,5,20.328l.606-1.464a4.489,4.489,0,0,1-2.429-2.429Zm20.662-4.965c0,1.241,0,2.132-.048,2.836a4.76,4.76,0,0,1-.293,1.523l1.464.606a6.29,6.29,0,0,0,.41-2.021c.052-.77.052-1.724.052-2.944Zm-5.309,8.7a8.533,8.533,0,0,0,3.145-.453L19.6,18.864a7.112,7.112,0,0,1-2.565.333Zm4.968-4.346A4.489,4.489,0,0,1,19.6,18.864l.606,1.464A6.074,6.074,0,0,0,23.5,17.041Zm-7.844-13.6c1.744,0,3,0,3.973.094a4.666,4.666,0,0,1,2.069.568l.828-1.351a6.2,6.2,0,0,0-2.747-.794c-1.069-.1-2.41-.1-4.123-.1Zm9.77,8.186c0-1.713,0-3.054-.1-4.123a6.2,6.2,0,0,0-.794-2.747l-1.351.828a4.666,4.666,0,0,1,.568,2.069c.093.977.094,2.229.094,3.973ZM20.231,3.5a4.488,4.488,0,0,1,1.482,1.482l1.351-.828a6.073,6.073,0,0,0-2.005-2.005ZM11.02,1.25c-1.713,0-3.054,0-4.123.1a6.2,6.2,0,0,0-2.747.794L4.978,3.5a4.666,4.666,0,0,1,2.069-.568c.977-.093,2.229-.094,3.973-.094ZM2.834,11.02c0-1.744,0-3,.094-3.973A4.666,4.666,0,0,1,3.5,4.978L2.145,4.15A6.2,6.2,0,0,0,1.351,6.9c-.1,1.069-.1,2.41-.1,4.123ZM4.15,2.145A6.073,6.073,0,0,0,2.145,4.15L3.5,4.978A4.489,4.489,0,0,1,4.978,3.5Zm7.416,19c-.214-.362-.4-.682-.586-.933a2.354,2.354,0,0,0-.721-.681l-.8,1.37a.807.807,0,0,1,.237.245c.128.176.273.419.5.807Zm-3.422-.368c.464.008.758.014.981.039a.831.831,0,0,1,.338.085l.8-1.37a2.37,2.37,0,0,0-.96-.29c-.314-.035-.694-.04-1.129-.048Zm6.863,1.175c.23-.388.374-.631.5-.807a.806.806,0,0,1,.237-.245l-.8-1.37a2.353,2.353,0,0,0-.721.681c-.183.251-.371.571-.586.933ZM17.038,19.2c-.434.007-.814.013-1.129.048a2.37,2.37,0,0,0-.96.29l.8,1.37a.832.832,0,0,1,.338-.085c.224-.025.518-.031.981-.039Z" transform="translate(-1.25 -1.25)" fill="#edd089"/>
</svg>
