<svg id="Group_13" data-name="Group 13" xmlns="http://www.w3.org/2000/svg" xmlns:xlink="http://www.w3.org/1999/xlink" width="180.004" height="166.136" viewBox="0 0 180.004 166.136">
  <defs>
    <clipPath id="clip-path">
      <rect id="Rectangle_1" data-name="Rectangle 1" width="180.004" height="166.136" fill="none"/>
    </clipPath>
    <clipPath id="clip-path-2">
      <path id="Path_7" data-name="Path 7" d="M78.178,25.2A13.8,13.8,0,0,1,70.446,37.67a14,14,0,0,1-4.592,1.371V2.049c-.867.162-1.725.349-2.57.562-.131.032-.262.071-.393.106V39.076A13.738,13.738,0,0,1,50.363,25.2V8.16c-.472.3-.94.606-1.4.924-.528.365-1.047.748-1.561,1.134V25.193A16.691,16.691,0,0,0,62.89,42.046v64l2.964,4.184V42.015A16.915,16.915,0,0,0,81.14,25.2V1.87q-1.466-.237-2.962-.377Z" transform="translate(-47.401 -1.493)" fill="none"/>
    </clipPath>
    <radialGradient id="radial-gradient" cx="1.048" cy="0.76" r="3.198" gradientUnits="objectBoundingBox">
      <stop offset="0" stop-color="#edd089"/>
      <stop offset="0.159" stop-color="#edd089"/>
      <stop offset="1" stop-color="#c08329"/>
    </radialGradient>
    <radialGradient id="radial-gradient-2" cx="1.048" cy="0.76" r="3.198" gradientUnits="objectBoundingBox">
      <stop offset="0" stop-color="#edd089"/>
      <stop offset="0.219" stop-color="#edd089"/>
      <stop offset="1" stop-color="#c08329"/>
    </radialGradient>
    <clipPath id="clip-path-4">
      <path id="Path_9" data-name="Path 9" d="M71.358,72.178A6.023,6.023,0,0,1,69,67.1V49.057c0-10.86,6.4-19.81,14.553-20.786V79.947ZM85.036,25.222c-10.475,0-19,10.692-19,23.835V67.1a8.9,8.9,0,0,0,3.728,7.573l13.788,8.782v7.93L86.516,87.2V25.222Z" transform="translate(-66.038 -25.222)" fill="none"/>
    </clipPath>
    <radialGradient id="radial-gradient-3" cx="1.551" cy="0.086" r="5.272" xlink:href="#radial-gradient"/>
  </defs>
  <g id="Group_2" data-name="Group 2" transform="translate(0 0)">
    <g id="Group_1" data-name="Group 1" clip-path="url(#clip-path)">
      <path id="Path_1" data-name="Path 1" d="M57.2,37.368a13.885,13.885,0,0,0,4.941,1.4V2.408c-.427.111-.855.222-1.276.345A43.944,43.944,0,0,0,49.883,7.68c-.09.056-.178.114-.267.173V24.891A13.909,13.909,0,0,0,57.2,37.368" transform="translate(16.737 0.812)" fill="#1a2d1a"/>
      <path id="Path_2" data-name="Path 2" d="M65.79,37.719A13.808,13.808,0,0,0,73.524,25.25V1.545q-1.2-.114-2.41-.162-.83-.034-1.668-.037h-.09A44.457,44.457,0,0,0,61.2,2.1V39.091a13.96,13.96,0,0,0,4.592-1.372" transform="translate(20.644 0.453)" fill="#1a2d1a"/>
      <path id="Path_3" data-name="Path 3" d="M61.037,38.117a16.862,16.862,0,0,1-9.209-15.125V8.018a44.083,44.083,0,0,0-17.552,35.24c0,10.45,4.6,19.637,9.7,27.6l23.343,32.981v-64a16.875,16.875,0,0,1-6.281-1.726" transform="translate(11.562 2.705)" fill="#1a2d1a"/>
      <path id="Path_4" data-name="Path 4" d="M76.487,1.776V25.1A16.912,16.912,0,0,1,61.2,41.92v68.214l5.154,7.286a3.683,3.683,0,0,0,6.009,0L85.185,99.3V91.369L71.4,82.585a8.9,8.9,0,0,1-3.728-7.572V56.966c0-13.143,8.521-23.835,19-23.835H88.15V95.112l3.069-4.338,1.706-2.409,10.9-15.4c4.869-6.554,9.7-17.154,9.7-27.6A44.171,44.171,0,0,0,76.487,1.776" transform="translate(20.644 0.599)" fill="#1a2d1a"/>
      <path id="Path_5" data-name="Path 5" d="M68.254,48.288V66.335A6.026,6.026,0,0,0,70.61,71.41l12.2,7.769V27.5c-8.151.976-14.553,9.926-14.553,20.785" transform="translate(23.024 9.277)" fill="#1a2d1a"/>
      <path id="Path_6" data-name="Path 6" d="M78.178,25.2a13.966,13.966,0,0,1-12.325,13.84V2.05q-1.3.243-2.57.56c-.132.032-.261.071-.393.106V39.077A13.738,13.738,0,0,1,50.363,25.2V8.159c-.472.3-.94.607-1.4.925-.531.365-1.048.746-1.562,1.134V25.194A16.691,16.691,0,0,0,62.89,42.047v64l2.964,4.186V42.015A16.91,16.91,0,0,0,81.14,25.2V1.871q-1.466-.237-2.962-.377Z" transform="translate(15.99 0.504)" fill="#f7961d"/>
    </g>
  </g>
  <g id="Group_4" data-name="Group 4" transform="translate(63.39 1.997)">
    <g id="Group_3" data-name="Group 3" clip-path="url(#clip-path-2)">
      <rect id="Rectangle_2" data-name="Rectangle 2" width="109.481" height="36.256" transform="translate(-2.515 108.678) rotate(-88.686)" fill="url(#radial-gradient)"/>
    </g>
  </g>
  <g id="Group_6" data-name="Group 6" transform="translate(63.39 1.997)">
    <g id="Group_5" data-name="Group 5" clip-path="url(#clip-path-2)">
      <rect id="Rectangle_3" data-name="Rectangle 3" width="109.481" height="36.256" transform="translate(-2.515 108.678) rotate(-88.686)" fill="url(#radial-gradient-2)"/>
    </g>
  </g>
  <g id="Group_8" data-name="Group 8" transform="translate(88.314 33.73)">
    <g id="Group_7" data-name="Group 7" clip-path="url(#clip-path-4)">
      <rect id="Rectangle_4" data-name="Rectangle 4" width="66.619" height="21.99" transform="translate(-1.517 66.132) rotate(-88.686)" fill="url(#radial-gradient-3)"/>
    </g>
  </g>
  <g id="Group_10" data-name="Group 10" transform="translate(88.314 33.73)">
    <g id="Group_9" data-name="Group 9" clip-path="url(#clip-path-4)">
      <rect id="Rectangle_5" data-name="Rectangle 5" width="66.619" height="21.99" transform="translate(-1.517 66.132) rotate(-88.686)" fill="url(#radial-gradient-3)"/>
    </g>
  </g>
  <g id="Group_12" data-name="Group 12" transform="translate(0 0)">
    <g id="Group_11" data-name="Group 11" clip-path="url(#clip-path)">
      <path id="Path_11" data-name="Path 11" d="M23.419,125.516l-5.839-17.3H14.8L8.849,125.437,3.116,108.211H0l7.08,21.181h3.238l5.793-16.928,5.765,16.928h3.177l7.08-21.181H29.258Z" transform="translate(0 36.502)" fill="#1a2d1a"/>
      <path id="Path_12" data-name="Path 12" d="M41.526,117.318H29.361V108.21H26.336v21.182h3.025v-9.44H41.526v9.44h3.025V108.211H41.526Z" transform="translate(8.884 36.502)" fill="#1a2d1a"/>
      <path id="Path_13" data-name="Path 13" d="M47.282,119.921H57.9v-2.572H47.282v-6.506H59.2v-2.632H44.255v21.179H59.626v-2.632H47.282Z" transform="translate(14.928 36.502)" fill="#1a2d1a"/>
      <path id="Path_14" data-name="Path 14" d="M71.973,122.068A6.738,6.738,0,0,0,75,119.542a7.142,7.142,0,0,0,1.059-3.948A7.233,7.233,0,0,0,75,111.629a6.742,6.742,0,0,0-3.026-2.541,11.624,11.624,0,0,0-4.75-.877H58.962v21.181h3.026v-6.445h5.234q.7,0,1.344-.056l4.556,6.5h3.3l-5.035-7.1c.2-.071.4-.135.587-.219m-4.841-1.693H61.988v-9.532h5.143a6.762,6.762,0,0,1,4.4,1.241,4.88,4.88,0,0,1,0,7.036,6.7,6.7,0,0,1-4.4,1.256" transform="translate(19.889 36.502)" fill="#1a2d1a"/>
      <path id="Path_15" data-name="Path 15" d="M77.985,119.921H88.6v-2.572H77.985v-6.506H89.907v-2.632H74.958v21.179H90.33v-2.632H77.985Z" transform="translate(25.285 36.502)" fill="#1a2d1a"/>
      <path id="Path_16" data-name="Path 16" d="M98.975,120.588a16.855,16.855,0,0,0,2.178-2.511,7.233,7.233,0,0,0,1.028-2.118,7.66,7.66,0,0,0,.273-2.027,5.5,5.5,0,0,0-.893-3.145,5.662,5.662,0,0,0-2.526-2.043,9.577,9.577,0,0,0-3.842-.713,11.8,11.8,0,0,0-4.493.833,7.734,7.734,0,0,0-3.251,2.376l2.055,1.785a6.106,6.106,0,0,1,2.36-1.74,7.977,7.977,0,0,1,3.057-.56,5.212,5.212,0,0,1,3.358.937,3.142,3.142,0,0,1,1.15,2.572,5.154,5.154,0,0,1-.2,1.377,5.387,5.387,0,0,1-.756,1.543,12.132,12.132,0,0,1-1.71,1.922L88.143,127.4v2.058h15.22v-2.633H92.513Z" transform="translate(29.499 36.441)" fill="#1a2d1a"/>
      <path id="Path_17" data-name="Path 17" d="M106.153,113.023a8.062,8.062,0,0,1,2.692-1.694,9.268,9.268,0,0,1,3.375-.6,9.149,9.149,0,0,1,3.313.588,8.376,8.376,0,0,1,2.828,1.862l1.876-1.876a9.1,9.1,0,0,0-3.54-2.451,12.532,12.532,0,0,0-4.6-.817,12.4,12.4,0,0,0-4.539.8,10.743,10.743,0,0,0-3.585,2.268,10.415,10.415,0,0,0-2.375,3.434,11.482,11.482,0,0,0,0,8.654,10.5,10.5,0,0,0,5.93,5.705,12.334,12.334,0,0,0,4.509.8,14.005,14.005,0,0,0,4.342-.681A10.756,10.756,0,0,0,120.057,127v-8.259h-2.9v6.881a7.61,7.61,0,0,1-1.71.849,10.044,10.044,0,0,1-3.254.53,9.111,9.111,0,0,1-3.358-.6,7.993,7.993,0,0,1-2.677-1.709,7.7,7.7,0,0,1-1.755-2.6,8.311,8.311,0,0,1-.622-3.222,8.4,8.4,0,0,1,.622-3.254,7.535,7.535,0,0,1,1.755-2.586" transform="translate(33.987 36.441)" fill="#1a2d1a"/>
      <path id="Path_18" data-name="Path 18" d="M139.447,114.535a10.263,10.263,0,0,0-2.36-3.434,10.8,10.8,0,0,0-3.571-2.269,12.822,12.822,0,0,0-8.972.016,10.752,10.752,0,0,0-3.569,2.284,10.531,10.531,0,0,0-2.36,3.433,11.315,11.315,0,0,0,0,8.6,10.517,10.517,0,0,0,2.36,3.433,10.746,10.746,0,0,0,3.584,2.285,12.811,12.811,0,0,0,8.957.015,10.8,10.8,0,0,0,3.571-2.269,10.263,10.263,0,0,0,2.36-3.434,11.687,11.687,0,0,0,0-8.654m-2.815,7.564a7.962,7.962,0,0,1-1.724,2.586,7.7,7.7,0,0,1-2.6,1.71,9.116,9.116,0,0,1-6.536,0,7.861,7.861,0,0,1-4.357-4.3,8.757,8.757,0,0,1,0-6.475,7.854,7.854,0,0,1,4.357-4.3,9.116,9.116,0,0,1,6.536,0,7.751,7.751,0,0,1,2.6,1.709,7.976,7.976,0,0,1,1.724,2.586,8.757,8.757,0,0,1,0,6.475" transform="translate(39.725 36.441)" fill="#1a2d1a"/>
    </g>
  </g>
</svg>
