<svg xmlns="http://www.w3.org/2000/svg" width="18.013" height="18.012" viewBox="0 0 18.013 18.012">
  <path id="star-svgrepo-com" d="M9.663,2.974A19.27,19.27,0,0,0,8.42,5.04l-.275.492L8.1,5.62a3.317,3.317,0,0,1-.807,1.1,3.141,3.141,0,0,1-1.259.468l-.1.021L5.4,7.327a17.647,17.647,0,0,0-2.257.595c-.478.188-.579.343-.618.467s-.042.33.244.784a18.975,18.975,0,0,0,1.5,1.873l.363.425.063.073a3.348,3.348,0,0,1,.748,1.137,3.461,3.461,0,0,1,.034,1.372l-.01.1-.055.567a20,20,0,0,0-.156,2.438c.025.553.141.705.234.776s.235.132.732-.01a17.83,17.83,0,0,0,2.161-.905l.5-.23.091-.042a3.123,3.123,0,0,1,1.284-.394,3.123,3.123,0,0,1,1.284.394l.091.042.5.23a17.826,17.826,0,0,0,2.161.905c.5.142.65.073.732.01s.209-.223.234-.776a20.006,20.006,0,0,0-.156-2.438l-.055-.567-.01-.1a3.462,3.462,0,0,1,.034-1.372,3.349,3.349,0,0,1,.748-1.138l.063-.073.363-.425a18.987,18.987,0,0,0,1.5-1.873c.286-.454.285-.654.244-.784s-.139-.278-.618-.467a17.646,17.646,0,0,0-2.257-.595l-.533-.121a5,5,0,0,1-1.355-.49,3.318,3.318,0,0,1-.807-1.1l-.049-.088-.275-.492a19.294,19.294,0,0,0-1.243-2.065c-.33-.43-.5-.468-.593-.468S9.992,2.544,9.663,2.974Zm-1-.764a2.028,2.028,0,0,1,1.591-.96,2.028,2.028,0,0,1,1.591.96,19.62,19.62,0,0,1,1.317,2.171l.3.539c.329.59.413.715.519.8a2.463,2.463,0,0,0,.872.265l.587.133a18.022,18.022,0,0,1,2.387.639,2.062,2.062,0,0,1,1.357,1.263,2.154,2.154,0,0,1-.381,1.827,19.352,19.352,0,0,1-1.57,1.98l-.4.465c-.433.506-.524.63-.566.767a2.815,2.815,0,0,0,.026.976l.06.618a20.352,20.352,0,0,1,.156,2.564,2.132,2.132,0,0,1-.73,1.721,1.986,1.986,0,0,1-1.838.2,18.2,18.2,0,0,1-2.29-.949l-.549-.253c-.6-.277-.73-.321-.85-.321s-.249.044-.85.321l-.549.253a18.193,18.193,0,0,1-2.29.949,1.986,1.986,0,0,1-1.838-.2A2.132,2.132,0,0,1,4,17.213a20.355,20.355,0,0,1,.156-2.564l.06-.618a2.814,2.814,0,0,0,.026-.976c-.043-.137-.133-.261-.566-.767l-.4-.465a19.338,19.338,0,0,1-1.57-1.98,2.154,2.154,0,0,1-.381-1.827A2.062,2.062,0,0,1,2.683,6.752,18.019,18.019,0,0,1,5.07,6.113L5.124,6.1l.533-.121a2.464,2.464,0,0,0,.872-.265c.106-.08.19-.205.519-.8l.3-.539A19.619,19.619,0,0,1,8.665,2.21Z" transform="translate(-1.25 -1.25)" fill="#ba8e2b" fill-rule="evenodd"/>
</svg>
