<svg xmlns="http://www.w3.org/2000/svg" width="23.972" height="22.973" viewBox="0 0 23.972 22.973">
  <path id="people-svgrepo-com" d="M3,22.728a7.988,7.988,0,0,1,11.986-6.922,7.99,7.99,0,0,1,11.986,6.922v4H19.98v-2h4.994v-2a6,6,0,0,0-8.242-5.557,7.964,7.964,0,0,1,2.249,5.557v4H3Zm7.991-8.989a4.994,4.994,0,1,1,4-7.991,5,5,0,1,1,0,5.994,4.989,4.989,0,0,1-4,2Zm5.993,8.989v2H5v-2a5.993,5.993,0,0,1,11.986,0Zm-3-13.984a3,3,0,1,1-3-3A3,3,0,0,1,13.987,8.744Zm4.994-3a3,3,0,1,0,3,3A3,3,0,0,0,18.981,5.748Z" transform="translate(-3 -3.75)" fill="#edd089" fill-rule="evenodd"/>
</svg>
