<svg xmlns="http://www.w3.org/2000/svg" width="20.896" height="25.539" viewBox="0 0 20.896 25.539">
  <path id="Vector" d="M1.191,25.539a1.162,1.162,0,0,0,.585-.176l8.672-5.42,8.672,5.42a1.161,1.161,0,0,0,1.776-.984V3.483A3.483,3.483,0,0,0,17.413,0H3.483A3.483,3.483,0,0,0,0,3.483v20.9a1.16,1.16,0,0,0,1.191,1.161ZM2.662,2.662a1.161,1.161,0,0,1,.821-.34h13.93a1.161,1.161,0,0,1,1.161,1.161V22.289l-7.511-4.695a1.161,1.161,0,0,0-1.231,0L2.322,22.289V3.483A1.161,1.161,0,0,1,2.662,2.662Z" fill="#edd089" style="mix-blend-mode: normal;isolation: isolate"/>
</svg>
